# xmcd
#
# Track frame offsets:
#	182
#	10842
#	24450
#	44582
#	55525
#	69425
#	80592
#	91245
#	102450
#	118727
#
# Disc length: 1789 seconds
#
# Revision: 0
# Processed by: cddbd v1.5.2PL0 Copyright (c) Steve Scherf et al.
# Submitted via: EasyCDDAExtractor 16.0.6.1
#
DISCID=7a06fb0a
DTITLE=Nativité Junior - Kouté
DYEAR=1900
DGENRE=Gospel
TTITLE0=C'est Jesus
TTITLE1=Kouté
TTITLE2=Ville en émoi
TTITLE3=Le chemin
TTITLE4=Ami
TTITLE5=I don't Know Why
TTITLE6=Jésus est entrer dans Ma vie
TTITLE7=L'enfant
TTITLE8=La Vérité
TTITLE9=La vie
EXTD=
EXTT0=
EXTT1=
EXTT2=
EXTT3=
EXTT4=
EXTT5=
EXTT6=
EXTT7=
EXTT8=
EXTT9=
PLAYORDER=
